<svg width="73" height="73" viewBox="0 0 73 73" fill="none" xmlns="http://www.w3.org/2000/svg">
  <path fill-rule="evenodd" clip-rule="evenodd"
    d="M24.634 13.4856L10.2465 20.6793L36.5275 34.9148L50.915 27.7211L24.634 13.4856ZM7.74847 22.5248C7.72896 22.6182 7.71881 22.7145 7.71881 22.8123V50.1873C7.71881 50.7199 8.01975 51.2068 8.49617 51.445L35.0935 64.7437V37.3366L7.74847 22.5248ZM37.906 64.744L64.504 51.445C64.9804 51.2068 65.2813 50.7199 65.2813 50.1873V23.6824L54.6349 29.0056V38.0209C54.6349 38.7975 54.0053 39.4271 53.2287 39.4271C52.452 39.4271 51.8224 38.7975 51.8224 38.0209V30.4118L37.906 37.3701V64.744ZM63.8761 21.2405L37.129 7.86697C36.7331 7.66902 36.2671 7.66902 35.8712 7.86697L27.7047 11.9502L53.8985 26.1385C53.927 26.154 53.9549 26.1704 53.982 26.1876L63.8761 21.2405Z"
    fill="black" />
</svg>